<svg id="my-svg" width="100%" xmlns="http://www.w3.org/2000/svg" xmlns:xlink="http://www.w3.org/1999/xlink" class="flowchart" style="max-width: 725.07px; background-color: transparent;" viewBox="0 0 725.0703125 643" role="graphics-document document" aria-roledescription="flowchart-v2"><style>#my-svg{font-family:"trebuchet ms",verdana,arial,sans-serif;font-size:16px;fill:#ccc;}@keyframes edge-animation-frame{from{stroke-dashoffset:0;}}@keyframes dash{to{stroke-dashoffset:0;}}#my-svg .edge-animation-slow{stroke-dasharray:9,5!important;stroke-dashoffset:900;animation:dash 50s linear infinite;stroke-linecap:round;}#my-svg .edge-animation-fast{stroke-dasharray:9,5!important;stroke-dashoffset:900;animation:dash 20s linear infinite;stroke-linecap:round;}#my-svg .error-icon{fill:#a44141;}#my-svg .error-text{fill:#ddd;stroke:#ddd;}#my-svg .edge-thickness-normal{stroke-width:1px;}#my-svg .edge-thickness-thick{stroke-width:3.5px;}#my-svg .edge-pattern-solid{stroke-dasharray:0;}#my-svg .edge-thickness-invisible{stroke-width:0;fill:none;}#my-svg .edge-pattern-dashed{stroke-dasharray:3;}#my-svg .edge-pattern-dotted{stroke-dasharray:2;}#my-svg .marker{fill:lightgrey;stroke:lightgrey;}#my-svg .marker.cross{stroke:lightgrey;}#my-svg svg{font-family:"trebuchet ms",verdana,arial,sans-serif;font-size:16px;}#my-svg p{margin:0;}#my-svg .label{font-family:"trebuchet ms",verdana,arial,sans-serif;color:#ccc;}#my-svg .cluster-label text{fill:#F9FFFE;}#my-svg .cluster-label span{color:#F9FFFE;}#my-svg .cluster-label span p{background-color:transparent;}#my-svg .label text,#my-svg span{fill:#ccc;color:#ccc;}#my-svg .node rect,#my-svg .node circle,#my-svg .node ellipse,#my-svg .node polygon,#my-svg .node path{fill:#1f2020;stroke:#ccc;stroke-width:1px;}#my-svg .rough-node .label text,#my-svg .node .label text,#my-svg .image-shape .label,#my-svg .icon-shape .label{text-anchor:middle;}#my-svg .node .katex path{fill:#000;stroke:#000;stroke-width:1px;}#my-svg .rough-node .label,#my-svg .node .label,#my-svg .image-shape .label,#my-svg .icon-shape .label{text-align:center;}#my-svg .node.clickable{cursor:pointer;}#my-svg .root .anchor path{fill:lightgrey!important;stroke-width:0;stroke:lightgrey;}#my-svg .arrowheadPath{fill:lightgrey;}#my-svg .edgePath .path{stroke:lightgrey;stroke-width:1px;}#my-svg .flowchart-link{stroke:lightgrey;fill:none;}#my-svg .edgeLabel{background-color:hsl(0, 0%, 34.4117647059%);text-align:center;}#my-svg .edgeLabel p{background-color:hsl(0, 0%, 34.4117647059%);}#my-svg .edgeLabel rect{opacity:0.5;background-color:hsl(0, 0%, 34.4117647059%);fill:hsl(0, 0%, 34.4117647059%);}#my-svg .labelBkg{background-color:rgba(87.75, 87.75, 87.75, 0.5);}#my-svg .cluster rect{fill:hsl(180, 1.5873015873%, 28.3529411765%);stroke:rgba(255, 255, 255, 0.25);stroke-width:1px;}#my-svg .cluster text{fill:#F9FFFE;}#my-svg .cluster span{color:#F9FFFE;}#my-svg div.mermaidTooltip{position:absolute;text-align:center;max-width:200px;padding:2px;font-family:"trebuchet ms",verdana,arial,sans-serif;font-size:12px;background:hsl(20, 1.5873015873%, 12.3529411765%);border:1px solid rgba(255, 255, 255, 0.25);border-radius:2px;pointer-events:none;z-index:100;}#my-svg .flowchartTitleText{text-anchor:middle;font-size:18px;fill:#ccc;}#my-svg rect.text{fill:none;stroke-width:0;}#my-svg .icon-shape,#my-svg .image-shape{background-color:hsl(0, 0%, 34.4117647059%);text-align:center;}#my-svg .icon-shape p,#my-svg .image-shape p{background-color:hsl(0, 0%, 34.4117647059%);padding:2px;}#my-svg .icon-shape .label rect,#my-svg .image-shape .label rect{opacity:0.5;background-color:hsl(0, 0%, 34.4117647059%);fill:hsl(0, 0%, 34.4117647059%);}#my-svg .label-icon{display:inline-block;height:1em;overflow:visible;vertical-align:-0.125em;}#my-svg .node .label-icon path{fill:currentColor;stroke:revert;stroke-width:revert;}#my-svg .node .neo-node{stroke:#ccc;}#my-svg [data-look="neo"].node rect,#my-svg [data-look="neo"].cluster rect,#my-svg [data-look="neo"].node polygon{stroke:url(#my-svg-gradient);filter:drop-shadow( 1px 2px 2px rgba(185,185,185,1));}#my-svg [data-look="neo"].node path{stroke:url(#my-svg-gradient);stroke-width:1px;}#my-svg [data-look="neo"].node .outer-path{filter:drop-shadow( 1px 2px 2px rgba(185,185,185,1));}#my-svg [data-look="neo"].node .neo-line path{stroke:#ccc;filter:none;}#my-svg [data-look="neo"].node circle{stroke:url(#my-svg-gradient);filter:drop-shadow( 1px 2px 2px rgba(185,185,185,1));}#my-svg [data-look="neo"].node circle .state-start{fill:#000000;}#my-svg [data-look="neo"].icon-shape .icon{fill:url(#my-svg-gradient);filter:drop-shadow( 1px 2px 2px rgba(185,185,185,1));}#my-svg [data-look="neo"].icon-shape .icon-neo path{stroke:url(#my-svg-gradient);filter:drop-shadow( 1px 2px 2px rgba(185,185,185,1));}#my-svg :root{--mermaid-font-family:"trebuchet ms",verdana,arial,sans-serif;}</style><g><marker id="my-svg_flowchart-v2-pointEnd" class="marker flowchart-v2" viewBox="0 0 10 10" refX="5" refY="5" markerUnits="userSpaceOnUse" markerWidth="8" markerHeight="8" orient="auto"><path d="M 0 0 L 10 5 L 0 10 z" class="arrowMarkerPath" style="stroke-width: 1; stroke-dasharray: 1, 0;"/></marker><marker id="my-svg_flowchart-v2-pointStart" class="marker flowchart-v2" viewBox="0 0 10 10" refX="4.5" refY="5" markerUnits="userSpaceOnUse" markerWidth="8" markerHeight="8" orient="auto"><path d="M 0 5 L 10 10 L 10 0 z" class="arrowMarkerPath" style="stroke-width: 1; stroke-dasharray: 1, 0;"/></marker><marker id="my-svg_flowchart-v2-pointEnd-margin" class="marker flowchart-v2" viewBox="0 0 11.5 14" refX="11.5" refY="7" markerUnits="userSpaceOnUse" markerWidth="10.5" markerHeight="14" orient="auto"><path d="M 0 0 L 11.5 7 L 0 14 z" class="arrowMarkerPath" style="stroke-width: 0; stroke-dasharray: 1, 0;"/></marker><marker id="my-svg_flowchart-v2-pointStart-margin" class="marker flowchart-v2" viewBox="0 0 11.5 14" refX="1" refY="7" markerUnits="userSpaceOnUse" markerWidth="11.5" markerHeight="14" orient="auto"><polygon points="0,7 11.5,14 11.5,0" class="arrowMarkerPath" style="stroke-width: 0; stroke-dasharray: 1, 0;"/></marker><marker id="my-svg_flowchart-v2-circleEnd" class="marker flowchart-v2" viewBox="0 0 10 10" refX="11" refY="5" markerUnits="userSpaceOnUse" markerWidth="11" markerHeight="11" orient="auto"><circle cx="5" cy="5" r="5" class="arrowMarkerPath" style="stroke-width: 1; stroke-dasharray: 1, 0;"/></marker><marker id="my-svg_flowchart-v2-circleStart" class="marker flowchart-v2" viewBox="0 0 10 10" refX="-1" refY="5" markerUnits="userSpaceOnUse" markerWidth="11" markerHeight="11" orient="auto"><circle cx="5" cy="5" r="5" class="arrowMarkerPath" style="stroke-width: 1; stroke-dasharray: 1, 0;"/></marker><marker id="my-svg_flowchart-v2-circleEnd-margin" class="marker flowchart-v2" viewBox="0 0 10 10" refY="5" refX="12.25" markerUnits="userSpaceOnUse" markerWidth="14" markerHeight="14" orient="auto"><circle cx="5" cy="5" r="5" class="arrowMarkerPath" style="stroke-width: 0; stroke-dasharray: 1, 0;"/></marker><marker id="my-svg_flowchart-v2-circleStart-margin" class="marker flowchart-v2" viewBox="0 0 10 10" refX="-2" refY="5" markerUnits="userSpaceOnUse" markerWidth="14" markerHeight="14" orient="auto"><circle cx="5" cy="5" r="5" class="arrowMarkerPath" style="stroke-width: 0; stroke-dasharray: 1, 0;"/></marker><marker id="my-svg_flowchart-v2-crossEnd" class="marker cross flowchart-v2" viewBox="0 0 11 11" refX="12" refY="5.2" markerUnits="userSpaceOnUse" markerWidth="11" markerHeight="11" orient="auto"><path d="M 1,1 l 9,9 M 10,1 l -9,9" class="arrowMarkerPath" style="stroke-width: 2; stroke-dasharray: 1, 0;"/></marker><marker id="my-svg_flowchart-v2-crossStart" class="marker cross flowchart-v2" viewBox="0 0 11 11" refX="-1" refY="5.2" markerUnits="userSpaceOnUse" markerWidth="11" markerHeight="11" orient="auto"><path d="M 1,1 l 9,9 M 10,1 l -9,9" class="arrowMarkerPath" style="stroke-width: 2; stroke-dasharray: 1, 0;"/></marker><marker id="my-svg_flowchart-v2-crossEnd-margin" class="marker cross flowchart-v2" viewBox="0 0 15 15" refX="17.7" refY="7.5" markerUnits="userSpaceOnUse" markerWidth="12" markerHeight="12" orient="auto"><path d="M 1,1 L 14,14 M 1,14 L 14,1" class="arrowMarkerPath" style="stroke-width: 2.5;"/></marker><marker id="my-svg_flowchart-v2-crossStart-margin" class="marker cross flowchart-v2" viewBox="0 0 15 15" refX="-3.5" refY="7.5" markerUnits="userSpaceOnUse" markerWidth="12" markerHeight="12" orient="auto"><path d="M 1,1 L 14,14 M 1,14 L 14,1" class="arrowMarkerPath" style="stroke-width: 2.5; stroke-dasharray: 1, 0;"/></marker><g class="root"><g class="clusters"><g class="cluster" id="my-svg-Vercel" data-look="classic"><rect style="" x="8" y="274" width="330" height="257"/><g class="cluster-label" transform="translate(104.6640625, 274)"><foreignObject width="136.671875" height="24"><div xmlns="http://www.w3.org/1999/xhtml" style="display: table-cell; white-space: nowrap; line-height: 1.5;"><span class="nodeLabel"><p>Vercel — serverless</p></span></div></foreignObject></g></g><g class="cluster" id="my-svg-Browser" data-look="classic"><rect style="" x="358" y="97" width="359.0703125" height="305"/><g class="cluster-label" transform="translate(486.10546875, 97)"><foreignObject width="102.859375" height="24"><div xmlns="http://www.w3.org/1999/xhtml" style="display: table-cell; white-space: nowrap; line-height: 1.5;"><span class="nodeLabel"><p>Browser — SPA</p></span></div></foreignObject></g></g></g><g class="edgePaths"><path d="M513.777,47.5L513.694,51.583C513.611,55.667,513.444,63.833,513.361,72.083C513.277,80.333,513.277,88.667,513.277,96.333C513.277,104,513.277,111,513.277,114.5L513.277,118" id="my-svg-L_User_UI_0" class="edge-thickness-normal edge-pattern-solid edge-thickness-normal edge-pattern-solid flowchart-link" style=";" data-edge="true" data-et="edge" data-id="L_User_UI_0" data-points="W3sieCI6NTEzLjc3NzM0Mzc1LCJ5Ijo0Ny41fSx7IngiOjUxMy4yNzczNDM3NSwieSI6NzJ9LHsieCI6NTEzLjI3NzM0Mzc1LCJ5Ijo5N30seyJ4Ijo1MTMuMjc3MzQzNzUsInkiOjEyMn1d" data-look="classic" marker-end="url(#my-svg_flowchart-v2-pointEnd)"/><path d="M534.443,200L537.79,206.167C541.137,212.333,547.83,224.667,551.177,237C554.523,249.333,554.523,261.667,554.523,274C554.523,286.333,554.523,298.667,554.523,304.833L554.523,311" id="my-svg-L_UI_LS_0" class="edge-thickness-normal edge-pattern-solid edge-thickness-normal edge-pattern-solid flowchart-link" style=";" data-edge="true" data-et="edge" data-id="L_UI_LS_0" data-points="W3sieCI6NTM0LjQ0MzEwMjM4NDg2ODQsInkiOjIwMH0seyJ4Ijo1NTQuNTIzNDM3NSwieSI6MjM3fSx7IngiOjU1NC41MjM0Mzc1LCJ5IjoyNzR9LHsieCI6NTU0LjUyMzQzNzUsInkiOjMxMX1d" data-look="classic"/><path d="M492.112,200L488.765,206.167C485.418,212.333,478.725,224.667,475.378,237C472.031,249.333,472.031,261.667,444.511,273.723C416.991,285.78,361.951,297.56,334.431,303.45L306.911,309.34" id="my-svg-L_UI_API_0" class="edge-thickness-normal edge-pattern-solid edge-thickness-normal edge-pattern-solid flowchart-link" style=";" data-edge="true" data-et="edge" data-id="L_UI_API_0" data-points="W3sieCI6NDkyLjExMTU4NTExNTEzMTU2LCJ5IjoyMDB9LHsieCI6NDcyLjAzMTI1LCJ5IjoyMzd9LHsieCI6NDcyLjAzMTI1LCJ5IjoyNzR9LHsieCI6MzAzLCJ5IjozMTAuMTc2ODIwOTg0NDI4OX1d" data-look="classic" marker-end="url(#my-svg_flowchart-v2-pointEnd)"/><path d="M173,377L173,381.167C173,385.333,173,393.667,173,402C173,410.333,173,418.667,173,426.333C173,434,173,441,173,444.5L173,448" id="my-svg-L_API_AC_0" class="edge-thickness-normal edge-pattern-solid edge-thickness-normal edge-pattern-solid flowchart-link" style=";" data-edge="true" data-et="edge" data-id="L_API_AC_0" data-points="W3sieCI6MTczLCJ5IjozNzd9LHsieCI6MTczLCJ5Ijo0MDJ9LHsieCI6MTczLCJ5Ijo0Mjd9LHsieCI6MTczLCJ5Ijo0NTJ9XQ==" data-look="classic" marker-end="url(#my-svg_flowchart-v2-pointEnd)"/><path d="M173,506L173,510.167C173,514.333,173,522.667,173,531C173,539.333,173,547.667,173,555.333C173,563,173,570,173,573.5L173,577" id="my-svg-L_AC_Claude_0" class="edge-thickness-normal edge-pattern-solid edge-thickness-normal edge-pattern-solid flowchart-link" style=";" data-edge="true" data-et="edge" data-id="L_AC_Claude_0" data-points="W3sieCI6MTczLCJ5Ijo1MDZ9LHsieCI6MTczLCJ5Ijo1MzF9LHsieCI6MTczLCJ5Ijo1NTZ9LHsieCI6MTczLCJ5Ijo1ODF9XQ==" data-look="classic" marker-end="url(#my-svg_flowchart-v2-pointEnd)"/></g><g class="edgeLabels"><g class="edgeLabel"><g class="label" data-id="L_User_UI_0" transform="translate(0, 0)"><foreignObject width="0" height="0"><div xmlns="http://www.w3.org/1999/xhtml" class="labelBkg" style="display: table-cell; white-space: nowrap; line-height: 1.5; max-width: 200px; text-align: center;"><span class="edgeLabel"></span></div></foreignObject></g></g><g class="edgeLabel"><g class="label" data-id="L_UI_LS_0" transform="translate(0, 0)"><foreignObject width="0" height="0"><div xmlns="http://www.w3.org/1999/xhtml" class="labelBkg" style="display: table-cell; white-space: nowrap; line-height: 1.5; max-width: 200px; text-align: center;"><span class="edgeLabel"></span></div></foreignObject></g></g><g class="edgeLabel" transform="translate(472.03125, 237)"><g class="label" data-id="L_UI_API_0" transform="translate(-62.4921875, -12)"><foreignObject width="124.984375" height="24"><div xmlns="http://www.w3.org/1999/xhtml" class="labelBkg" style="display: table-cell; white-space: nowrap; line-height: 1.5; max-width: 200px; text-align: center;"><span class="edgeLabel"><p>same-origin POST</p></span></div></foreignObject></g></g><g class="edgeLabel"><g class="label" data-id="L_API_AC_0" transform="translate(0, 0)"><foreignObject width="0" height="0"><div xmlns="http://www.w3.org/1999/xhtml" class="labelBkg" style="display: table-cell; white-space: nowrap; line-height: 1.5; max-width: 200px; text-align: center;"><span class="edgeLabel"></span></div></foreignObject></g></g><g class="edgeLabel"><g class="label" data-id="L_AC_Claude_0" transform="translate(0, 0)"><foreignObject width="0" height="0"><div xmlns="http://www.w3.org/1999/xhtml" class="labelBkg" style="display: table-cell; white-space: nowrap; line-height: 1.5; max-width: 200px; text-align: center;"><span class="edgeLabel"></span></div></foreignObject></g></g></g><g class="nodes"><g class="node default" id="my-svg-flowchart-User-0" data-look="classic" transform="translate(513.27734375, 27.5)"><g class="basic label-container outer-path"><path d="M-8.7734375 -19.5 C-4.44108507620137 -19.5, -0.10873265240273966 -19.5, 8.7734375 -19.5 C8.7734375 -19.5, 8.773437499999998 -19.5, 8.773437499999998 -19.5 C9.163214784291968 -19.487500601148216, 9.55299206858394 -19.475001202296433, 10.0228067896239 -19.45993515863156 C10.44808169590315 -19.418909399890705, 10.8733566021824 -19.37788364114985, 11.267042152847864 -19.3399052695533 C11.730913626607705 -19.264910127052815, 12.194785100367548 -19.18991498455233, 12.501030759676757 -19.140403561325776 C12.97506651631216 -19.032207993246146, 13.449102272947563 -18.92401242516652, 13.71970188623539 -18.862249829261074 C14.072991446191967 -18.757395342320706, 14.426281006148546 -18.652540855380337, 14.918047751460602 -18.50658706670804 C15.195806365599745 -18.40436932913235, 15.473564979738887 -18.302151591556665, 16.091144095147794 -18.074876768247425 C16.443068024627312 -17.919090484119295, 16.79499195410683 -17.76330419999117, 17.23417041279238 -17.568892924097174 C17.45762572269485 -17.452316432051013, 17.68108103259732 -17.335739940004853, 18.342429764076783 -16.990714730406097 C18.617185129269526 -16.824156413384507, 18.891940494462265 -16.657598096362918, 19.411368073605697 -16.342718045390892 C19.663945568062758 -16.166530919161158, 19.916523062519822 -15.990343792931423, 20.436592844578712 -15.627565626425154 C20.74161018072692 -15.38432241769916, 21.046627516875127 -15.141079208973165, 21.41389120850187 -14.848196188198123 C21.694520625304254 -14.593335976905689, 21.975150042106634 -14.338475765613254, 22.339247236767985 -14.007812326905688 C22.658426117344263 -13.678233927637237, 22.97760499792054 -13.348655528368786, 23.208858442968648 -13.10986736009568 C23.5086790358151 -12.75768103146321, 23.80849962866155 -12.405494702830742, 24.019151408126582 -12.158051136245305 C24.31304778757045 -11.76425676230149, 24.60694416701432 -11.370462388357675, 24.766796464640635 -11.156274872382312 C24.98796379028783 -10.816502468445657, 25.209131115935026 -10.476730064509002, 25.448721378604247 -10.108655082055241 C25.6899568013514 -9.680317161232269, 25.93119222409855 -9.251979240409295, 26.0621239742735 -9.019496659696287 C26.262761590571575 -8.602868356496069, 26.463399206869646 -8.186240053295851, 26.60448364880834 -7.893275190886684 C26.703688813105057 -7.648236517072421, 26.802893977401776 -7.403197843258159, 27.073571729970325 -6.734618561215508 C27.21640542583235 -6.304426226738002, 27.359239121694372 -5.874233892260496, 27.46746063421488 -5.548287939305138 C27.555324914838522 -5.21322335666708, 27.643189195462167 -4.878158774029023, 27.78453178754556 -4.339158212148133 C27.87534192780356 -3.872867334653235, 27.966152068061565 -3.4065764571583372, 28.023482276581777 -3.1121979531509023 C28.066659838829665 -2.7773213067303617, 28.10983740107755 -2.442444660309821, 28.183330202509367 -1.872449005199798 C28.200640267524346 -1.602830770158503, 28.217950332539324 -1.333212535117208, 28.263418715913414 -0.6250057626472757 C28.263418715913414 -0.3321061081899785, 28.263418715913414 -0.03920645373268128, 28.263418715913414 0.625005762647271 C28.243543212574746 0.9345827703645697, 28.22366770923608 1.2441597780818685, 28.183330202509367 1.8724490051997846 C28.135897579984206 2.240327058874189, 28.088464957459042 2.608205112548593, 28.023482276581777 3.1121979531508885 C27.974538553800766 3.363513625371914, 27.925594831019755 3.6148292975929395, 27.78453178754556 4.339158212148129 C27.65853572992272 4.819635786900824, 27.532539672299876 5.300113361653519, 27.467460634214884 5.548287939305125 C27.324004447178233 5.980355118020105, 27.180548260141585 6.412422296735086, 27.07357172997033 6.734618561215495 C26.934538346965518 7.078033705264978, 26.795504963960703 7.421448849314461, 26.604483648808344 7.893275190886679 C26.46550628295929 8.181864664711503, 26.326528917110235 8.470454138536327, 26.062123974273504 9.019496659696284 C25.882207893524708 9.338955879544493, 25.70229181277591 9.6584150993927, 25.44872137860425 10.108655082055236 C25.217998952189255 10.46310668667505, 24.98727652577426 10.817558291294864, 24.76679646464064 11.156274872382301 C24.57502468139251 11.413231591165939, 24.383252898144377 11.670188309949575, 24.019151408126582 12.158051136245302 C23.8275630478021 12.38310172596897, 23.63597468747762 12.60815231569264, 23.20885844296866 13.10986736009567 C22.989627937397916 13.336240856256707, 22.770397431827178 13.562614352417743, 22.33924723676799 14.007812326905684 C22.11468526028018 14.211753572367606, 21.890123283792366 14.415694817829527, 21.413891208501887 14.848196188198111 C21.057111662044065 15.132718382195758, 20.700332115586242 15.417240576193407, 20.436592844578715 15.627565626425152 C20.061427253214738 15.889264902303967, 19.68626166185076 16.150964178182782, 19.411368073605708 16.34271804539089 C19.105036095155707 16.528418290933804, 18.79870411670571 16.714118536476718, 18.342429764076787 16.990714730406093 C18.052050699588417 17.14220530235301, 17.761671635100047 17.293695874299924, 17.234170412792388 17.56889292409717 C17.00023028903093 17.67245127729916, 16.766290165269474 17.77600963050115, 16.091144095147804 18.07487676824742 C15.662080157975963 18.232776263350214, 15.23301622080412 18.39067575845301, 14.918047751460616 18.506587066708033 C14.46126835417582 18.642156794138177, 14.004488956891024 18.777726521568322, 13.719701886235413 18.86224982926107 C13.235247680876508 18.972823340275106, 12.750793475517602 19.08339685128914, 12.501030759676766 19.140403561325773 C12.134653163238024 19.199636649817293, 11.768275566799284 19.258869738308814, 11.267042152847878 19.3399052695533 C10.851306346982026 19.38001080274972, 10.435570541116173 19.42011633594614, 10.0228067896239 19.45993515863156 C9.734996546838884 19.469164672929022, 9.447186304053869 19.478394187226485, 8.773437500000004 19.5 C8.773437500000002 19.5, 8.773437500000002 19.5, 8.7734375 19.5 C5.244606743274044 19.5, 1.7157759865480893 19.5, -8.773437499999996 19.5 C-9.198602273271334 19.486365793254215, -9.623767046542671 19.47273158650843, -10.022806789623893 19.45993515863156 C-10.45469247242113 19.418271666230638, -10.886578155218366 19.376608173829716, -11.267042152847871 19.3399052695533 C-11.574232611552068 19.29024109848759, -11.881423070256266 19.240576927421884, -12.501030759676759 19.140403561325773 C-12.983968562601746 19.03017615927183, -13.466906365526734 18.919948757217885, -13.719701886235388 18.862249829261074 C-14.108373143493072 18.746894240284057, -14.497044400750756 18.63153865130704, -14.918047751460593 18.506587066708043 C-15.216386792991003 18.396795541608984, -15.514725834521412 18.287004016509925, -16.091144095147797 18.074876768247425 C-16.336192089854688 17.966401290081176, -16.58124008456158 17.857925811914928, -17.23417041279238 17.568892924097174 C-17.542073162955642 17.408260256558123, -17.849975913118904 17.247627589019075, -18.34242976407678 16.990714730406097 C-18.74840938512227 16.744607498327248, -19.154389006167754 16.498500266248403, -19.411368073605686 16.3427180453909 C-19.698794844424775 16.142221572571877, -19.98622161524386 15.941725099752853, -20.436592844578712 15.627565626425156 C-20.791738327325977 15.344346554752418, -21.146883810073238 15.06112748307968, -21.41389120850187 14.848196188198125 C-21.66909376561642 14.616427978116338, -21.92429632273097 14.384659768034549, -22.339247236767974 14.007812326905697 C-22.64458661224508 13.69252435289664, -22.94992598772219 13.377236378887584, -23.208858442968655 13.109867360095677 C-23.38265890455629 12.905711448388416, -23.55645936614393 12.701555536681155, -24.01915140812658 12.158051136245307 C-24.302186358860766 11.778810087275957, -24.585221309594953 11.399569038306606, -24.766796464640635 11.156274872382316 C-24.974766721457982 10.836776710077482, -25.18273697827533 10.517278547772646, -25.448721378604244 10.108655082055249 C-25.69128191220906 9.677964292722468, -25.933842445813873 9.247273503389689, -26.0621239742735 9.019496659696289 C-26.264174943956665 8.59993349795101, -26.46622591363983 8.180370336205732, -26.60448364880834 7.893275190886686 C-26.732217610078294 7.577769836981765, -26.859951571348248 7.262264483076844, -27.073571729970325 6.73461856121551 C-27.220686824646673 6.291531335657517, -27.367801919323025 5.848444110099524, -27.46746063421488 5.5482879393051325 C-27.548137356164883 5.240632632997301, -27.628814078114885 4.932977326689469, -27.784531787545557 4.339158212148136 C-27.856664966875698 3.9687695816407267, -27.928798146205835 3.5983809511333176, -28.023482276581777 3.112197953150904 C-28.06019517254153 2.827459981868383, -28.09690806850128 2.542722010585862, -28.183330202509364 1.872449005199809 C-28.20234953663311 1.5762075240922717, -28.22136887075686 1.2799660429847344, -28.263418715913414 0.6250057626472781 C-28.263418715913414 0.31526634835037454, -28.263418715913414 0.005526934053470933, -28.263418715913414 -0.6250057626472687 C-28.24022563819787 -0.9862566691822581, -28.217032560482323 -1.3475075757172474, -28.183330202509367 -1.8724490051997822 C-28.119439416087904 -2.367973328021824, -28.055548629666443 -2.863497650843866, -28.023482276581777 -3.112197953150895 C-27.9476103861529 -3.501784074973461, -27.87173849572402 -3.891370196796027, -27.78453178754556 -4.339158212148126 C-27.70039111414743 -4.660023066613733, -27.616250440749297 -4.98088792107934, -27.467460634214884 -5.548287939305123 C-27.37845130449031 -5.81636985872477, -27.289441974765733 -6.084451778144418, -27.073571729970332 -6.734618561215485 C-26.89670393434727 -7.171485435910653, -26.719836138724208 -7.60835231060582, -26.604483648808344 -7.893275190886676 C-26.480926448488947 -8.149844361050476, -26.35736924816955 -8.406413531214277, -26.062123974273504 -9.019496659696282 C-25.864539125915947 -9.370328565590572, -25.666954277558393 -9.721160471484865, -25.448721378604247 -10.108655082055243 C-25.31225891769243 -10.318298067317379, -25.17579645678061 -10.527941052579514, -24.76679646464064 -11.156274872382308 C-24.49780821986565 -11.516694615047575, -24.22881997509066 -11.877114357712841, -24.019151408126586 -12.158051136245302 C-23.72815955166853 -12.499866728746632, -23.437167695210473 -12.841682321247964, -23.208858442968662 -13.10986736009567 C-22.89470180013108 -13.434259886565528, -22.5805451572935 -13.758652413035387, -22.339247236767996 -14.007812326905677 C-22.124992242558466 -14.20239304377027, -21.910737248348937 -14.396973760634863, -21.413891208501887 -14.848196188198107 C-21.099232820560392 -15.099127879170085, -20.7845744326189 -15.350059570142065, -20.43659284457872 -15.627565626425149 C-20.04665040252066 -15.899572593668596, -19.656707960462604 -16.171579560912043, -19.41136807360571 -16.342718045390885 C-19.104822759810578 -16.52854761607372, -18.798277446015444 -16.71437718675655, -18.34242976407679 -16.99071473040609 C-18.10434064254499 -17.11492567260587, -17.86625152101319 -17.23913661480565, -17.234170412792388 -17.56889292409717 C-16.963799751611703 -17.688577995541156, -16.693429090431017 -17.80826306698514, -16.091144095147804 -18.07487676824742 C-15.661239620347665 -18.233085588967274, -15.231335145547524 -18.391294409687127, -14.918047751460618 -18.506587066708033 C-14.510358681852837 -18.627587042564027, -14.102669612245057 -18.748587018420018, -13.719701886235413 -18.862249829261067 C-13.347814375335712 -18.94713072683112, -12.975926864436012 -19.03201162440117, -12.501030759676768 -19.140403561325773 C-12.131678091189327 -19.2001176363941, -11.762325422701887 -19.259831711462425, -11.26704215284788 -19.3399052695533 C-10.898450853063624 -19.37546282894759, -10.529859553279369 -19.411020388341885, -10.022806789623903 -19.45993515863156 C-9.698870711331619 -19.470323158159065, -9.374934633039333 -19.480711157686574, -8.773437500000005 -19.5 C-8.773437500000004 -19.5, -8.773437500000002 -19.5, -8.7734375 -19.5" stroke="none" stroke-width="0" fill="#1f2020" style=""/><path d="M-8.7734375 -19.5 C-5.004304983642559 -19.5, -1.2351724672851176 -19.5, 8.7734375 -19.5 M-8.7734375 -19.5 C-2.524712468891953 -19.5, 3.7240125622160942 -19.5, 8.7734375 -19.5 M8.7734375 -19.5 C8.7734375 -19.5, 8.773437499999998 -19.5, 8.773437499999998 -19.5 M8.7734375 -19.5 C8.7734375 -19.5, 8.773437499999998 -19.5, 8.773437499999998 -19.5 M8.773437499999998 -19.5 C9.088971185871419 -19.489881448843164, 9.404504871742837 -19.47976289768633, 10.0228067896239 -19.45993515863156 M8.773437499999998 -19.5 C9.060018818623629 -19.490809894908438, 9.34660013724726 -19.481619789816875, 10.0228067896239 -19.45993515863156 M10.0228067896239 -19.45993515863156 C10.402405542619803 -19.423315723464338, 10.782004295615709 -19.386696288297117, 11.267042152847864 -19.3399052695533 M10.0228067896239 -19.45993515863156 C10.47797615285745 -19.41602551758167, 10.933145516090997 -19.372115876531776, 11.267042152847864 -19.3399052695533 M11.267042152847864 -19.3399052695533 C11.5219102258465 -19.298700176042306, 11.776778298845135 -19.257495082531314, 12.501030759676757 -19.140403561325776 M11.267042152847864 -19.3399052695533 C11.628426108016544 -19.281479514256056, 11.989810063185223 -19.223053758958812, 12.501030759676757 -19.140403561325776 M12.501030759676757 -19.140403561325776 C12.949834735022645 -19.03796698267272, 13.39863871036853 -18.935530404019662, 13.71970188623539 -18.862249829261074 M12.501030759676757 -19.140403561325776 C12.795470866268909 -19.073199528397378, 13.08991097286106 -19.005995495468976, 13.71970188623539 -18.862249829261074 M13.71970188623539 -18.862249829261074 C14.15040095107607 -18.734420607601887, 14.581100015916752 -18.606591385942696, 14.918047751460602 -18.50658706670804 M13.71970188623539 -18.862249829261074 C13.975149553195205 -18.78643430257957, 14.230597220155023 -18.71061877589806, 14.918047751460602 -18.50658706670804 M14.918047751460602 -18.50658706670804 C15.24197522738498 -18.387378761215103, 15.565902703309359 -18.26817045572217, 16.091144095147794 -18.074876768247425 M14.918047751460602 -18.50658706670804 C15.289028782339791 -18.37006261803344, 15.66000981321898 -18.23353816935884, 16.091144095147794 -18.074876768247425 M16.091144095147794 -18.074876768247425 C16.477859888612347 -17.903689157997096, 16.864575682076897 -17.73250154774677, 17.23417041279238 -17.568892924097174 M16.091144095147794 -18.074876768247425 C16.42008537915012 -17.929264219516092, 16.749026663152446 -17.783651670784764, 17.23417041279238 -17.568892924097174 M17.23417041279238 -17.568892924097174 C17.50866156950746 -17.425691063458892, 17.783152726222543 -17.282489202820614, 18.342429764076783 -16.990714730406097 M17.23417041279238 -17.568892924097174 C17.489879887882466 -17.435489454732412, 17.745589362972552 -17.30208598536765, 18.342429764076783 -16.990714730406097 M18.342429764076783 -16.990714730406097 C18.63726198774159 -16.811985703794026, 18.932094211406397 -16.633256677181954, 19.411368073605697 -16.342718045390892 M18.342429764076783 -16.990714730406097 C18.75492875299435 -16.740655419211134, 19.16742774191192 -16.490596108016174, 19.411368073605697 -16.342718045390892 M19.411368073605697 -16.342718045390892 C19.810727442526407 -16.064142237620253, 20.210086811447113 -15.785566429849617, 20.436592844578712 -15.627565626425154 M19.411368073605697 -16.342718045390892 C19.76546771132292 -16.09571346684562, 20.11956734904014 -15.848708888300349, 20.436592844578712 -15.627565626425154 M20.436592844578712 -15.627565626425154 C20.67275983080686 -15.439228739575649, 20.90892681703501 -15.250891852726141, 21.41389120850187 -14.848196188198123 M20.436592844578712 -15.627565626425154 C20.721298718804444 -15.400520268071633, 21.006004593030173 -15.173474909718111, 21.41389120850187 -14.848196188198123 M21.41389120850187 -14.848196188198123 C21.746285115330963 -14.546324836676783, 22.078679022160056 -14.244453485155443, 22.339247236767985 -14.007812326905688 M21.41389120850187 -14.848196188198123 C21.626988007112676 -14.654667313932116, 21.84008480572348 -14.461138439666108, 22.339247236767985 -14.007812326905688 M22.339247236767985 -14.007812326905688 C22.686314078716897 -13.649437317875782, 23.03338092066581 -13.291062308845875, 23.208858442968648 -13.10986736009568 M22.339247236767985 -14.007812326905688 C22.576848489781476 -13.762469525743597, 22.814449742794967 -13.517126724581507, 23.208858442968648 -13.10986736009568 M23.208858442968648 -13.10986736009568 C23.504771349817332 -12.762271221789822, 23.800684256666013 -12.414675083483964, 24.019151408126582 -12.158051136245305 M23.208858442968648 -13.10986736009568 C23.513746840716355 -12.75172809945993, 23.81863523846406 -12.393588838824178, 24.019151408126582 -12.158051136245305 M24.019151408126582 -12.158051136245305 C24.185864018570694 -11.934671426081447, 24.35257662901481 -11.71129171591759, 24.766796464640635 -11.156274872382312 M24.019151408126582 -12.158051136245305 C24.20025073683216 -11.915394534268078, 24.38135006553774 -11.67273793229085, 24.766796464640635 -11.156274872382312 M24.766796464640635 -11.156274872382312 C24.939828367513396 -10.890451403998036, 25.112860270386157 -10.62462793561376, 25.448721378604247 -10.108655082055241 M24.766796464640635 -11.156274872382312 C24.919981128461707 -10.92094209291135, 25.073165792282776 -10.68560931344039, 25.448721378604247 -10.108655082055241 M25.448721378604247 -10.108655082055241 C25.589369441510897 -9.85892020420375, 25.730017504417546 -9.609185326352259, 26.0621239742735 -9.019496659696287 M25.448721378604247 -10.108655082055241 C25.573553817990817 -9.887002445269193, 25.69838625737739 -9.665349808483143, 26.0621239742735 -9.019496659696287 M26.0621239742735 -9.019496659696287 C26.181986684097787 -8.770599178095019, 26.301849393922073 -8.521701696493748, 26.60448364880834 -7.893275190886684 M26.0621239742735 -9.019496659696287 C26.18942366971946 -8.75515611832561, 26.31672336516542 -8.490815576954935, 26.60448364880834 -7.893275190886684 M26.60448364880834 -7.893275190886684 C26.725348846951686 -7.594735814702983, 26.84621404509503 -7.296196438519282, 27.073571729970325 -6.734618561215508 M26.60448364880834 -7.893275190886684 C26.749778517753583 -7.534394055506745, 26.895073386698826 -7.175512920126806, 27.073571729970325 -6.734618561215508 M27.073571729970325 -6.734618561215508 C27.184203935730906 -6.401411984312858, 27.294836141491484 -6.0682054074102085, 27.46746063421488 -5.548287939305138 M27.073571729970325 -6.734618561215508 C27.225606096451383 -6.276715272761259, 27.37764046293244 -5.81881198430701, 27.46746063421488 -5.548287939305138 M27.46746063421488 -5.548287939305138 C27.581597499999248 -5.113034602838809, 27.69573436578361 -4.677781266372481, 27.78453178754556 -4.339158212148133 M27.46746063421488 -5.548287939305138 C27.563463934021865 -5.182185749047772, 27.65946723382885 -4.816083558790406, 27.78453178754556 -4.339158212148133 M27.78453178754556 -4.339158212148133 C27.870963574463982 -3.89534925368667, 27.957395361382403 -3.451540295225207, 28.023482276581777 -3.1121979531509023 M27.78453178754556 -4.339158212148133 C27.84889866185637 -4.008647916505833, 27.913265536167177 -3.678137620863533, 28.023482276581777 -3.1121979531509023 M28.023482276581777 -3.1121979531509023 C28.05626067443207 -2.8579751722507982, 28.089039072282368 -2.603752391350694, 28.183330202509367 -1.872449005199798 M28.023482276581777 -3.1121979531509023 C28.074784421685912 -2.714308646477659, 28.126086566790043 -2.3164193398044155, 28.183330202509367 -1.872449005199798 M28.183330202509367 -1.872449005199798 C28.202803132815156 -1.569142397420706, 28.222276063120944 -1.2658357896416137, 28.263418715913414 -0.6250057626472757 M28.183330202509367 -1.872449005199798 C28.203013212872946 -1.565870230947041, 28.222696223236525 -1.2592914566942839, 28.263418715913414 -0.6250057626472757 M28.263418715913414 -0.6250057626472757 C28.263418715913414 -0.13134649877763055, 28.263418715913414 0.3623127650920146, 28.263418715913414 0.625005762647271 M28.263418715913414 -0.6250057626472757 C28.263418715913414 -0.2673905262182375, 28.263418715913414 0.0902247102108007, 28.263418715913414 0.625005762647271 M28.263418715913414 0.625005762647271 C28.236134480278608 1.0499797560979942, 28.208850244643802 1.4749537495487173, 28.183330202509367 1.8724490051997846 M28.263418715913414 0.625005762647271 C28.245072861807998 0.9107572488460027, 28.226727007702586 1.1965087350447343, 28.183330202509367 1.8724490051997846 M28.183330202509367 1.8724490051997846 C28.14190414130948 2.193741355365042, 28.100478080109596 2.515033705530299, 28.023482276581777 3.1121979531508885 M28.183330202509367 1.8724490051997846 C28.13998374523105 2.208635568124252, 28.09663728795273 2.5448221310487193, 28.023482276581777 3.1121979531508885 M28.023482276581777 3.1121979531508885 C27.942210040658686 3.529513707722819, 27.860937804735595 3.9468294622947497, 27.78453178754556 4.339158212148129 M28.023482276581777 3.1121979531508885 C27.956718383109127 3.455016435579068, 27.889954489636477 3.797834918007247, 27.78453178754556 4.339158212148129 M27.78453178754556 4.339158212148129 C27.695048015167483 4.680398618738015, 27.605564242789406 5.021639025327902, 27.467460634214884 5.548287939305125 M27.78453178754556 4.339158212148129 C27.678100661483537 4.745026223364445, 27.571669535421517 5.150894234580762, 27.467460634214884 5.548287939305125 M27.467460634214884 5.548287939305125 C27.36444390022688 5.858557928589427, 27.261427166238878 6.1688279178737275, 27.07357172997033 6.734618561215495 M27.467460634214884 5.548287939305125 C27.349330565091233 5.904076886035059, 27.231200495967578 6.2598658327649925, 27.07357172997033 6.734618561215495 M27.07357172997033 6.734618561215495 C26.887132510144152 7.1951270387432515, 26.700693290317975 7.655635516271008, 26.604483648808344 7.893275190886679 M27.07357172997033 6.734618561215495 C26.920693962963984 7.112229601411717, 26.76781619595764 7.489840641607939, 26.604483648808344 7.893275190886679 M26.604483648808344 7.893275190886679 C26.470200608643232 8.172116796986314, 26.335917568478123 8.45095840308595, 26.062123974273504 9.019496659696284 M26.604483648808344 7.893275190886679 C26.45149326562243 8.210962995042028, 26.298502882436516 8.52865079919738, 26.062123974273504 9.019496659696284 M26.062123974273504 9.019496659696284 C25.821132973210602 9.447400585068491, 25.5801419721477 9.8753045104407, 25.44872137860425 10.108655082055236 M26.062123974273504 9.019496659696284 C25.92705455711687 9.259326087119492, 25.79198513996023 9.4991555145427, 25.44872137860425 10.108655082055236 M25.44872137860425 10.108655082055236 C25.196663835710066 10.495883154868034, 24.94460629281588 10.883111227680832, 24.76679646464064 11.156274872382301 M25.44872137860425 10.108655082055236 C25.255276487038827 10.405838382726406, 25.061831595473407 10.703021683397578, 24.76679646464064 11.156274872382301 M24.76679646464064 11.156274872382301 C24.56824582391268 11.422314642622288, 24.36969518318472 11.688354412862275, 24.019151408126582 12.158051136245302 M24.76679646464064 11.156274872382301 C24.580440172169993 11.40597532688547, 24.39408387969934 11.655675781388638, 24.019151408126582 12.158051136245302 M24.019151408126582 12.158051136245302 C23.70467940135554 12.527447849362666, 23.3902073945845 12.89684456248003, 23.20885844296866 13.10986736009567 M24.019151408126582 12.158051136245302 C23.80985242240435 12.403905634324301, 23.60055343668212 12.649760132403301, 23.20885844296866 13.10986736009567 M23.20885844296866 13.10986736009567 C23.02917886225638 13.295401279149026, 22.849499281544098 13.480935198202381, 22.33924723676799 14.007812326905684 M23.20885844296866 13.10986736009567 C22.999939284634177 13.325593543657916, 22.791020126299696 13.541319727220161, 22.33924723676799 14.007812326905684 M22.33924723676799 14.007812326905684 C22.07463364652297 14.248127388274275, 21.810020056277946 14.488442449642864, 21.413891208501887 14.848196188198111 M22.33924723676799 14.007812326905684 C22.0029015386816 14.313272590688236, 21.66655584059521 14.618732854470789, 21.413891208501887 14.848196188198111 M21.413891208501887 14.848196188198111 C21.094230325475984 15.103117235877919, 20.774569442450083 15.358038283557727, 20.436592844578715 15.627565626425152 M21.413891208501887 14.848196188198111 C21.09793347996994 15.10016406871407, 20.781975751437994 15.352131949230028, 20.436592844578715 15.627565626425152 M20.436592844578715 15.627565626425152 C20.22336205474572 15.77630619480053, 20.010131264912726 15.925046763175907, 19.411368073605708 16.34271804539089 M20.436592844578715 15.627565626425152 C20.2108660808991 15.785022845213943, 19.985139317219485 15.942480064002734, 19.411368073605708 16.34271804539089 M19.411368073605708 16.34271804539089 C19.1335636629405 16.511124711696066, 18.85575925227529 16.679531378001244, 18.342429764076787 16.990714730406093 M19.411368073605708 16.34271804539089 C19.187595953187024 16.47837001981964, 18.963823832768345 16.61402199424839, 18.342429764076787 16.990714730406093 M18.342429764076787 16.990714730406093 C18.0485751093211 17.144018515569247, 17.75472045456541 17.2973223007324, 17.234170412792388 17.56889292409717 M18.342429764076787 16.990714730406093 C18.112503045430973 17.110667352248523, 17.88257632678516 17.230619974090953, 17.234170412792388 17.56889292409717 M17.234170412792388 17.56889292409717 C16.803205964468194 17.75966810126415, 16.372241516144005 17.95044327843113, 16.091144095147804 18.07487676824742 M17.234170412792388 17.56889292409717 C16.78176736664498 17.769158332567077, 16.32936432049758 17.969423741036987, 16.091144095147804 18.07487676824742 M16.091144095147804 18.07487676824742 C15.75203085536544 18.199673575215755, 15.412917615583076 18.32447038218409, 14.918047751460616 18.506587066708033 M16.091144095147804 18.07487676824742 C15.807549935392252 18.179242040553138, 15.523955775636702 18.283607312858855, 14.918047751460616 18.506587066708033 M14.918047751460616 18.506587066708033 C14.644268307262042 18.587843368648542, 14.370488863063466 18.669099670589052, 13.719701886235413 18.86224982926107 M14.918047751460616 18.506587066708033 C14.534305985635646 18.620479608503253, 14.150564219810676 18.734372150298473, 13.719701886235413 18.86224982926107 M13.719701886235413 18.86224982926107 C13.41963681887997 18.93073772277739, 13.119571751524528 18.99922561629371, 12.501030759676766 19.140403561325773 M13.719701886235413 18.86224982926107 C13.303949296057993 18.957142644929867, 12.888196705880574 19.052035460598667, 12.501030759676766 19.140403561325773 M12.501030759676766 19.140403561325773 C12.189127316834615 19.190829691117166, 11.877223873992463 19.241255820908563, 11.267042152847878 19.3399052695533 M12.501030759676766 19.140403561325773 C12.163970457784496 19.194896856994035, 11.826910155892225 19.249390152662297, 11.267042152847878 19.3399052695533 M11.267042152847878 19.3399052695533 C10.940190966440433 19.37143621040996, 10.613339780032986 19.402967151266623, 10.0228067896239 19.45993515863156 M11.267042152847878 19.3399052695533 C10.84288372914943 19.38082332256235, 10.41872530545098 19.4217413755714, 10.0228067896239 19.45993515863156 M10.0228067896239 19.45993515863156 C9.632308488631583 19.47245767908555, 9.241810187639267 19.48498019953954, 8.773437500000004 19.5 M10.0228067896239 19.45993515863156 C9.528626123779388 19.47578257072088, 9.034445457934874 19.4916299828102, 8.773437500000004 19.5 M8.773437500000004 19.5 C8.773437500000004 19.5, 8.773437500000002 19.5, 8.7734375 19.5 M8.773437500000004 19.5 C8.773437500000002 19.5, 8.773437500000002 19.5, 8.7734375 19.5 M8.7734375 19.5 C2.9141877024439857 19.5, -2.9450620951120285 19.5, -8.773437499999996 19.5 M8.7734375 19.5 C2.270252361624051 19.5, -4.232932776751898 19.5, -8.773437499999996 19.5 M-8.773437499999996 19.5 C-9.086706416113847 19.489954075601183, -9.399975332227697 19.479908151202366, -10.022806789623893 19.45993515863156 M-8.773437499999996 19.5 C-9.1238734622344 19.488762200773365, -9.474309424468801 19.477524401546727, -10.022806789623893 19.45993515863156 M-10.022806789623893 19.45993515863156 C-10.503751134898089 19.41353903606316, -10.984695480172284 19.367142913494757, -11.267042152847871 19.3399052695533 M-10.022806789623893 19.45993515863156 C-10.337405526569578 19.429586196838745, -10.652004263515263 19.399237235045934, -11.267042152847871 19.3399052695533 M-11.267042152847871 19.3399052695533 C-11.643504220416267 19.279041801975776, -12.019966287984664 19.218178334398257, -12.501030759676759 19.140403561325773 M-11.267042152847871 19.3399052695533 C-11.71970679032267 19.266721961433067, -12.172371427797469 19.19353865331283, -12.501030759676759 19.140403561325773 M-12.501030759676759 19.140403561325773 C-12.927700261472177 19.04301903181967, -13.354369763267597 18.94563450231357, -13.719701886235388 18.862249829261074 M-12.501030759676759 19.140403561325773 C-12.95920369586423 19.03582857849881, -13.417376632051703 18.931253595671844, -13.719701886235388 18.862249829261074 M-13.719701886235388 18.862249829261074 C-14.129352317221766 18.74066773164331, -14.539002748208143 18.619085634025545, -14.918047751460593 18.506587066708043 M-13.719701886235388 18.862249829261074 C-14.019904273277643 18.77315133658142, -14.320106660319897 18.684052843901764, -14.918047751460593 18.506587066708043 M-14.918047751460593 18.506587066708043 C-15.167719331295812 18.4147056173899, -15.417390911131031 18.322824168071755, -16.091144095147797 18.074876768247425 M-14.918047751460593 18.506587066708043 C-15.323594172650232 18.357342234880235, -15.729140593839873 18.208097403052424, -16.091144095147797 18.074876768247425 M-16.091144095147797 18.074876768247425 C-16.382087118652002 17.946084922260262, -16.673030142156207 17.8172930762731, -17.23417041279238 17.568892924097174 M-16.091144095147797 18.074876768247425 C-16.412755308365675 17.932509024413545, -16.734366521583553 17.790141280579665, -17.23417041279238 17.568892924097174 M-17.23417041279238 17.568892924097174 C-17.624691966609856 17.365158079611593, -18.015213520427327 17.16142323512601, -18.34242976407678 16.990714730406097 M-17.23417041279238 17.568892924097174 C-17.621879173933433 17.366625511749202, -18.009587935074485 17.164358099401227, -18.34242976407678 16.990714730406097 M-18.34242976407678 16.990714730406097 C-18.64626834554089 16.806525996768855, -18.950106927005 16.622337263131616, -19.411368073605686 16.3427180453909 M-18.34242976407678 16.990714730406097 C-18.582842964816276 16.844974835293023, -18.823256165555776 16.699234940179952, -19.411368073605686 16.3427180453909 M-19.411368073605686 16.3427180453909 C-19.75681183934203 16.101751428432827, -20.10225560507838 15.860784811474756, -20.436592844578712 15.627565626425156 M-19.411368073605686 16.3427180453909 C-19.663748358684813 16.166668483886156, -19.91612864376394 15.990618922381413, -20.436592844578712 15.627565626425156 M-20.436592844578712 15.627565626425156 C-20.801228622359346 15.336778297010662, -21.16586440013998 15.045990967596168, -21.41389120850187 14.848196188198125 M-20.436592844578712 15.627565626425156 C-20.80048468929044 15.337371563836223, -21.16437653400217 15.047177501247292, -21.41389120850187 14.848196188198125 M-21.41389120850187 14.848196188198125 C-21.740822903160407 14.55128547324787, -22.067754597818944 14.254374758297612, -22.339247236767974 14.007812326905697 M-21.41389120850187 14.848196188198125 C-21.7695740546776 14.525174438153737, -22.12525690085333 14.202152688109349, -22.339247236767974 14.007812326905697 M-22.339247236767974 14.007812326905697 C-22.534134011466726 13.806575731527467, -22.729020786165478 13.605339136149235, -23.208858442968655 13.109867360095677 M-22.339247236767974 14.007812326905697 C-22.651281700118435 13.685611124990468, -22.963316163468892 13.36340992307524, -23.208858442968655 13.109867360095677 M-23.208858442968655 13.109867360095677 C-23.48010863237646 12.79124145304425, -23.75135882178426 12.472615545992824, -24.01915140812658 12.158051136245307 M-23.208858442968655 13.109867360095677 C-23.432383005157906 12.847302690440284, -23.655907567347157 12.58473802078489, -24.01915140812658 12.158051136245307 M-24.01915140812658 12.158051136245307 C-24.244023992398994 11.856742359634143, -24.468896576671405 11.55543358302298, -24.766796464640635 11.156274872382316 M-24.01915140812658 12.158051136245307 C-24.215585083392163 11.894847906865383, -24.41201875865775 11.63164467748546, -24.766796464640635 11.156274872382316 M-24.766796464640635 11.156274872382316 C-24.936697379207516 10.895261442823957, -25.106598293774393 10.634248013265596, -25.448721378604244 10.108655082055249 M-24.766796464640635 11.156274872382316 C-24.916188957011688 10.926767886599196, -25.065581449382744 10.697260900816074, -25.448721378604244 10.108655082055249 M-25.448721378604244 10.108655082055249 C-25.593100860066208 9.852294692711697, -25.73748034152817 9.595934303368143, -26.0621239742735 9.019496659696289 M-25.448721378604244 10.108655082055249 C-25.66189198837625 9.730149078540121, -25.875062598148258 9.351643075024993, -26.0621239742735 9.019496659696289 M-26.0621239742735 9.019496659696289 C-26.218351314029395 8.695087245963599, -26.37457865378529 8.370677832230907, -26.60448364880834 7.893275190886686 M-26.0621239742735 9.019496659696289 C-26.202484783846057 8.728034435378662, -26.342845593418613 8.436572211061035, -26.60448364880834 7.893275190886686 M-26.60448364880834 7.893275190886686 C-26.739426159446488 7.559964580674508, -26.874368670084632 7.22665397046233, -27.073571729970325 6.73461856121551 M-26.60448364880834 7.893275190886686 C-26.72707449503822 7.590473430566113, -26.8496653412681 7.2876716702455395, -27.073571729970325 6.73461856121551 M-27.073571729970325 6.73461856121551 C-27.162488238893605 6.4668162032603815, -27.251404747816885 6.199013845305253, -27.46746063421488 5.5482879393051325 M-27.073571729970325 6.73461856121551 C-27.181902716732356 6.408342889287033, -27.290233703494387 6.082067217358555, -27.46746063421488 5.5482879393051325 M-27.46746063421488 5.5482879393051325 C-27.547460676463736 5.243213105972607, -27.627460718712594 4.938138272640081, -27.784531787545557 4.339158212148136 M-27.46746063421488 5.5482879393051325 C-27.55526236691329 5.213461879014427, -27.643064099611703 4.878635818723722, -27.784531787545557 4.339158212148136 M-27.784531787545557 4.339158212148136 C-27.860459061797197 3.9492877061010723, -27.936386336048834 3.5594172000540087, -28.023482276581777 3.112197953150904 M-27.784531787545557 4.339158212148136 C-27.84983168986575 4.003857014873201, -27.91513159218594 3.6685558175982678, -28.023482276581777 3.112197953150904 M-28.023482276581777 3.112197953150904 C-28.072192332829175 2.734412375784654, -28.120902389076573 2.3566267984184037, -28.183330202509364 1.872449005199809 M-28.023482276581777 3.112197953150904 C-28.063309739573672 2.8033040150079067, -28.103137202565566 2.4944100768649093, -28.183330202509364 1.872449005199809 M-28.183330202509364 1.872449005199809 C-28.204404728948564 1.5441962448576947, -28.225479255387764 1.2159434845155803, -28.263418715913414 0.6250057626472781 M-28.183330202509364 1.872449005199809 C-28.201051946817266 1.5964185328696776, -28.218773691125172 1.3203880605395462, -28.263418715913414 0.6250057626472781 M-28.263418715913414 0.6250057626472781 C-28.263418715913414 0.1467273147964704, -28.263418715913414 -0.33155113305433737, -28.263418715913414 -0.6250057626472687 M-28.263418715913414 0.6250057626472781 C-28.263418715913414 0.2868469012827674, -28.263418715913414 -0.051311960081743324, -28.263418715913414 -0.6250057626472687 M-28.263418715913414 -0.6250057626472687 C-28.24638575267764 -0.8903079138049201, -28.229352789441865 -1.1556100649625716, -28.183330202509367 -1.8724490051997822 M-28.263418715913414 -0.6250057626472687 C-28.24543056345415 -0.9051857569756531, -28.227442410994882 -1.1853657513040374, -28.183330202509367 -1.8724490051997822 M-28.183330202509367 -1.8724490051997822 C-28.127746875751683 -2.3035423113630396, -28.072163548993995 -2.7346356175262967, -28.023482276581777 -3.112197953150895 M-28.183330202509367 -1.8724490051997822 C-28.132215701083158 -2.268882984561479, -28.08110119965695 -2.665316963923176, -28.023482276581777 -3.112197953150895 M-28.023482276581777 -3.112197953150895 C-27.95984627601868 -3.4389553665689188, -27.896210275455584 -3.7657127799869423, -27.78453178754556 -4.339158212148126 M-28.023482276581777 -3.112197953150895 C-27.96243149046941 -3.4256808367496983, -27.901380704357038 -3.739163720348501, -27.78453178754556 -4.339158212148126 M-27.78453178754556 -4.339158212148126 C-27.705742064584417 -4.639617573480903, -27.626952341623273 -4.94007693481368, -27.467460634214884 -5.548287939305123 M-27.78453178754556 -4.339158212148126 C-27.714811770019526 -4.605030855821639, -27.64509175249349 -4.870903499495151, -27.467460634214884 -5.548287939305123 M-27.467460634214884 -5.548287939305123 C-27.33490738605333 -5.947517203275712, -27.202354137891778 -6.346746467246301, -27.073571729970332 -6.734618561215485 M-27.467460634214884 -5.548287939305123 C-27.345161071504382 -5.916634736400057, -27.222861508793883 -6.2849815334949914, -27.073571729970332 -6.734618561215485 M-27.073571729970332 -6.734618561215485 C-26.974763085489325 -6.9786778234187565, -26.875954441008318 -7.222737085622028, -26.604483648808344 -7.893275190886676 M-27.073571729970332 -6.734618561215485 C-26.95156404670023 -7.035979897750719, -26.829556363430132 -7.337341234285953, -26.604483648808344 -7.893275190886676 M-26.604483648808344 -7.893275190886676 C-26.429423196081935 -8.25679196666671, -26.25436274335552 -8.620308742446744, -26.062123974273504 -9.019496659696282 M-26.604483648808344 -7.893275190886676 C-26.43759429395034 -8.239824507109475, -26.270704939092337 -8.586373823332275, -26.062123974273504 -9.019496659696282 M-26.062123974273504 -9.019496659696282 C-25.849597087766014 -9.396859667371213, -25.63707020125852 -9.774222675046145, -25.448721378604247 -10.108655082055243 M-26.062123974273504 -9.019496659696282 C-25.842586860258983 -9.409307036172455, -25.62304974624446 -9.799117412648629, -25.448721378604247 -10.108655082055243 M-25.448721378604247 -10.108655082055243 C-25.179267355107786 -10.522608820682267, -24.909813331611325 -10.936562559309293, -24.76679646464064 -11.156274872382308 M-25.448721378604247 -10.108655082055243 C-25.309409619177977 -10.322675354979358, -25.170097859751706 -10.536695627903473, -24.76679646464064 -11.156274872382308 M-24.76679646464064 -11.156274872382308 C-24.470564747685017 -11.553198385838252, -24.17433303072939 -11.950121899294196, -24.019151408126586 -12.158051136245302 M-24.76679646464064 -11.156274872382308 C-24.56751223649211 -11.423297582934671, -24.36822800834358 -11.690320293487032, -24.019151408126586 -12.158051136245302 M-24.019151408126586 -12.158051136245302 C-23.789106721428766 -12.428274715154055, -23.559062034730946 -12.698498294062809, -23.208858442968662 -13.10986736009567 M-24.019151408126586 -12.158051136245302 C-23.807704584848977 -12.406428606532266, -23.59625776157137 -12.654806076819233, -23.208858442968662 -13.10986736009567 M-23.208858442968662 -13.10986736009567 C-22.986943763156738 -13.339012486535532, -22.76502908334481 -13.568157612975394, -22.339247236767996 -14.007812326905677 M-23.208858442968662 -13.10986736009567 C-22.920717251377788 -13.407396797245033, -22.632576059786917 -13.704926234394396, -22.339247236767996 -14.007812326905677 M-22.339247236767996 -14.007812326905677 C-22.021467687970947 -14.296411305137038, -21.7036881391739 -14.5850102833684, -21.413891208501887 -14.848196188198107 M-22.339247236767996 -14.007812326905677 C-21.977315417343206 -14.336509229116087, -21.615383597918417 -14.665206131326498, -21.413891208501887 -14.848196188198107 M-21.413891208501887 -14.848196188198107 C-21.10466529322438 -15.094795626784725, -20.795439377946874 -15.341395065371344, -20.43659284457872 -15.627565626425149 M-21.413891208501887 -14.848196188198107 C-21.163993026319872 -15.04748333841835, -20.91409484413786 -15.246770488638596, -20.43659284457872 -15.627565626425149 M-20.43659284457872 -15.627565626425149 C-20.1296817450817 -15.841653523466904, -19.822770645584683 -16.05574142050866, -19.41136807360571 -16.342718045390885 M-20.43659284457872 -15.627565626425149 C-20.218016893850805 -15.780034747652534, -19.99944094312289 -15.932503868879921, -19.41136807360571 -16.342718045390885 M-19.41136807360571 -16.342718045390885 C-19.043326003026436 -16.56582731143132, -18.67528393244716 -16.788936577471755, -18.34242976407679 -16.99071473040609 M-19.41136807360571 -16.342718045390885 C-19.012912616846037 -16.584264084862774, -18.614457160086364 -16.825810124334666, -18.34242976407679 -16.99071473040609 M-18.34242976407679 -16.99071473040609 C-18.11097642463971 -17.111463789337478, -17.879523085202628 -17.232212848268862, -17.234170412792388 -17.56889292409717 M-18.34242976407679 -16.99071473040609 C-17.97513546160284 -17.182331932743523, -17.60784115912889 -17.373949135080952, -17.234170412792388 -17.56889292409717 M-17.234170412792388 -17.56889292409717 C-16.90929342098531 -17.71270633123661, -16.584416429178233 -17.856519738376047, -16.091144095147804 -18.07487676824742 M-17.234170412792388 -17.56889292409717 C-16.844944566539983 -17.74119166025861, -16.455718720287578 -17.913490396420052, -16.091144095147804 -18.07487676824742 M-16.091144095147804 -18.07487676824742 C-15.848710878464122 -18.164094433015105, -15.606277661780439 -18.25331209778279, -14.918047751460618 -18.506587066708033 M-16.091144095147804 -18.07487676824742 C-15.675799733886294 -18.227727332592845, -15.260455372624783 -18.380577896938266, -14.918047751460618 -18.506587066708033 M-14.918047751460618 -18.506587066708033 C-14.643771514977074 -18.587990813991006, -14.369495278493531 -18.669394561273975, -13.719701886235413 -18.862249829261067 M-14.918047751460618 -18.506587066708033 C-14.534415882534173 -18.62044699168063, -14.15078401360773 -18.734306916653225, -13.719701886235413 -18.862249829261067 M-13.719701886235413 -18.862249829261067 C-13.245037910374192 -18.970588784279474, -12.770373934512971 -19.07892773929788, -12.501030759676768 -19.140403561325773 M-13.719701886235413 -18.862249829261067 C-13.397377166654513 -18.935818343140042, -13.075052447073613 -19.00938685701902, -12.501030759676768 -19.140403561325773 M-12.501030759676768 -19.140403561325773 C-12.23028107230525 -19.184176271084816, -11.959531384933731 -19.22794898084386, -11.26704215284788 -19.3399052695533 M-12.501030759676768 -19.140403561325773 C-12.17342734740861 -19.19336794041888, -11.845823935140455 -19.246332319511993, -11.26704215284788 -19.3399052695533 M-11.26704215284788 -19.3399052695533 C-10.987256732385939 -19.366895832574063, -10.707471311923998 -19.39388639559483, -10.022806789623903 -19.45993515863156 M-11.26704215284788 -19.3399052695533 C-11.014606328028593 -19.364257449975117, -10.762170503209306 -19.38860963039694, -10.022806789623903 -19.45993515863156 M-10.022806789623903 -19.45993515863156 C-9.609297245958546 -19.47319560484941, -9.195787702293186 -19.486456051067254, -8.773437500000005 -19.5 M-10.022806789623903 -19.45993515863156 C-9.681769146836205 -19.47087157204626, -9.340731504048506 -19.481807985460957, -8.773437500000005 -19.5 M-8.773437500000005 -19.5 C-8.773437500000004 -19.5, -8.773437500000004 -19.5, -8.7734375 -19.5 M-8.773437500000005 -19.5 C-8.773437500000004 -19.5, -8.773437500000002 -19.5, -8.7734375 -19.5" stroke="#ccc" stroke-width="1.3" fill="none" stroke-dasharray="0 0" style=""/></g><g class="label" style="" transform="translate(-15.8984375, -12)"><rect/><foreignObject width="31.796875" height="24"><div xmlns="http://www.w3.org/1999/xhtml" style="display: table-cell; white-space: nowrap; line-height: 1.5; max-width: 200px; text-align: center;"><span class="nodeLabel"><p>User</p></span></div></foreignObject></g></g><g class="node default" id="my-svg-flowchart-UI-1" data-look="classic" transform="translate(513.27734375, 161)"><rect class="basic label-container" style="" x="-110.5703125" y="-39" width="221.140625" height="78"/><g class="label" style="" transform="translate(-80.5703125, -24)"><rect/><foreignObject width="161.140625" height="48"><div xmlns="http://www.w3.org/1999/xhtml" style="display: table-cell; white-space: nowrap; line-height: 1.5; max-width: 200px; text-align: center;"><span class="nodeLabel"><p>SvelteKit client<br />Monaco · chat · routes</p></span></div></foreignObject></g></g><g class="node default" id="my-svg-flowchart-LS-2" data-look="classic" transform="translate(554.5234375, 338)"><rect class="basic label-container" style="" x="-127.546875" y="-27" width="255.09375" height="54"/><g class="label" style="" transform="translate(-97.546875, -12)"><rect/><foreignObject width="195.09375" height="24"><div xmlns="http://www.w3.org/1999/xhtml" style="display: table-cell; white-space: nowrap; line-height: 1.5; max-width: 200px; text-align: center;"><span class="nodeLabel"><p>session store · localStorage</p></span></div></foreignObject></g></g><g class="node default" id="my-svg-flowchart-API-3" data-look="classic" transform="translate(173, 338)"><rect class="basic label-container" style="" x="-130" y="-39" width="260" height="78"/><g class="label" style="" transform="translate(-100, -24)"><rect/><foreignObject width="200" height="48"><div xmlns="http://www.w3.org/1999/xhtml" style="display: table; white-space: break-spaces; line-height: 1.5; max-width: 200px; text-align: center; width: 200px;"><span class="nodeLabel"><p>/api/scaffold · /api/chat · /api/session-intro</p></span></div></foreignObject></g></g><g class="node default" id="my-svg-flowchart-AC-4" data-look="classic" transform="translate(173, 479)"><rect class="basic label-container" style="" x="-87.6640625" y="-27" width="175.328125" height="54"/><g class="label" style="" transform="translate(-57.6640625, -12)"><rect/><foreignObject width="115.328125" height="24"><div xmlns="http://www.w3.org/1999/xhtml" style="display: table-cell; white-space: nowrap; line-height: 1.5; max-width: 200px; text-align: center;"><span class="nodeLabel"><p>anthropic-client</p></span></div></foreignObject></g></g><g class="node default" id="my-svg-flowchart-Claude-5" data-look="classic" transform="translate(173, 608)"><rect class="basic label-container" style="" x="-105.0625" y="-27" width="210.125" height="54"/><g class="label" style="" transform="translate(-75.0625, -12)"><rect/><foreignObject width="150.125" height="24"><div xmlns="http://www.w3.org/1999/xhtml" style="display: table-cell; white-space: nowrap; line-height: 1.5; max-width: 200px; text-align: center;"><span class="nodeLabel"><p>Anthropic Claude API</p></span></div></foreignObject></g></g></g></g></g><defs><filter id="my-svg-drop-shadow" height="130%" width="130%"><feDropShadow dx="4" dy="4" stdDeviation="0" flood-opacity="0.06" flood-color="#FFFFFF"/></filter></defs><defs><filter id="my-svg-drop-shadow-small" height="150%" width="150%"><feDropShadow dx="2" dy="2" stdDeviation="0" flood-opacity="0.06" flood-color="#FFFFFF"/></filter></defs><linearGradient id="my-svg-gradient" gradientUnits="objectBoundingBox" x1="0%" y1="0%" x2="100%" y2="0%"><stop offset="0%" stop-color="#cccccc" stop-opacity="1"/><stop offset="100%" stop-color="hsl(180, 0%, 18.3529411765%)" stop-opacity="1"/></linearGradient></svg>